<?xml version="1.0" encoding="UTF-8"?>
<svg id="Layer_1" data-name="Layer 1" xmlns="http://www.w3.org/2000/svg" viewBox="0 0 1654.15 576.77">
  <g>
    <path d="M30.75,35.55H0v-11.1h74.85v11.1h-30.9v90h-13.2V35.55Z" style="fill: #abadb0; stroke-width: 0px;"/>
    <path d="M84.6,19.06h13.2v45.3h.3c2.1-3.75,5.4-7.05,9.45-9.3,3.9-2.25,8.55-3.75,13.5-3.75,9.75,0,25.35,6,25.35,31.05v43.2h-13.2v-41.7c0-11.7-4.35-21.6-16.8-21.6-8.55,0-15.3,6-17.7,13.2-.75,1.8-.9,3.75-.9,6.3v43.8h-13.2V19.06Z" style="fill: #abadb0; stroke-width: 0px;"/>
    <path d="M175.2,91.65c.3,17.85,11.7,25.2,24.9,25.2,9.45,0,15.15-1.65,20.1-3.75l2.25,9.45c-4.65,2.1-12.6,4.5-24.15,4.5-22.35,0-35.7-14.7-35.7-36.6s12.9-39.15,34.05-39.15c23.7,0,30,20.85,30,34.2,0,2.7-.3,4.8-.45,6.15h-51ZM213.9,82.2c.15-8.4-3.45-21.45-18.3-21.45-13.35,0-19.2,12.3-20.25,21.45h38.55Z" style="fill: #abadb0; stroke-width: 0px;"/>
  </g>
  <g>
    <path d="M850.63,439.38c6.3-1.05,14.55-1.95,25.05-1.95,12.9,0,22.35,3,28.35,8.4,5.55,4.8,8.85,12.15,8.85,21.15s-2.7,16.35-7.8,21.6c-6.9,7.35-18.15,11.1-30.9,11.1-3.9,0-7.5-.15-10.5-.9v40.5h-13.05v-99.9ZM863.68,488.12c2.85.75,6.45,1.05,10.8,1.05,15.75,0,25.35-7.65,25.35-21.6s-9.45-19.8-23.85-19.8c-5.7,0-10.05.45-12.3,1.05v39.3Z" style="fill: #abadb0; stroke-width: 0px;"/>
    <path d="M927.58,489.32c0-8.55-.15-15.9-.6-22.65h11.55l.45,14.25h.6c3.3-9.75,11.25-15.9,20.1-15.9,1.5,0,2.55.15,3.75.45v12.45c-1.35-.3-2.7-.45-4.5-.45-9.3,0-15.9,7.05-17.7,16.95-.3,1.8-.6,3.9-.6,6.15v38.7h-13.05v-49.95Z" style="fill: #abadb0; stroke-width: 0px;"/>
    <path d="M1040.83,502.37c0,26.85-18.6,38.55-36.15,38.55-19.65,0-34.8-14.4-34.8-37.35,0-24.3,15.9-38.55,36-38.55s34.95,15.15,34.95,37.35ZM983.23,503.12c0,15.9,9.15,27.9,22.05,27.9s22.05-11.85,22.05-28.2c0-12.3-6.15-27.9-21.75-27.9s-22.35,14.4-22.35,28.2Z" style="fill: #abadb0; stroke-width: 0px;"/>
    <path d="M1039.78,560.27c6-.45,11.25-2.1,14.4-5.55,3.6-4.2,4.95-9.9,4.95-27.3v-60.75h13.2v65.85c0,14.1-2.25,23.25-8.7,29.85-5.85,5.85-15.45,8.25-22.5,8.25l-1.35-10.35ZM1073.83,446.27c.15,4.35-3,8.1-8.25,8.1-4.95,0-8.1-3.75-8.1-8.1,0-4.65,3.45-8.25,8.4-8.25s7.95,3.6,7.95,8.25Z" style="fill: #abadb0; stroke-width: 0px;"/>
    <path d="M1101.28,505.37c.3,17.85,11.7,25.2,24.9,25.2,9.45,0,15.15-1.65,20.1-3.75l2.25,9.45c-4.65,2.1-12.6,4.5-24.15,4.5-22.35,0-35.7-14.7-35.7-36.6s12.9-39.15,34.05-39.15c23.7,0,30,20.85,30,34.2,0,2.7-.3,4.8-.45,6.15h-51ZM1139.98,495.92c.15-8.4-3.45-21.45-18.3-21.45-13.35,0-19.2,12.3-20.25,21.45h38.55Z" style="fill: #abadb0; stroke-width: 0px;"/>
    <path d="M1220.83,536.57c-3.45,1.8-11.1,4.2-20.85,4.2-21.9,0-36.15-14.85-36.15-37.05s15.3-38.55,39-38.55c7.8,0,14.7,1.95,18.3,3.75l-3,10.2c-3.15-1.8-8.1-3.45-15.3-3.45-16.65,0-25.65,12.3-25.65,27.45,0,16.8,10.8,27.15,25.2,27.15,7.5,0,12.45-1.95,16.2-3.6l2.25,9.9Z" style="fill: #abadb0; stroke-width: 0px;"/>
    <path d="M1254.13,445.82v20.85h18.9v10.05h-18.9v39.15c0,9,2.55,14.1,9.9,14.1,3.45,0,6-.45,7.65-.9l.6,9.9c-2.55,1.05-6.6,1.8-11.7,1.8-6.15,0-11.1-1.95-14.25-5.55-3.75-3.9-5.1-10.35-5.1-18.9v-39.6h-11.25v-10.05h11.25v-17.4l12.9-3.45Z" style="fill: #abadb0; stroke-width: 0px;"/>
  </g>
  <g>
    <path d="M36.43,385.14v-19.8c19.08,0,18.36-1.8,18.36-31.32v-124.56c0-29.52.72-31.32-18.36-31.32v-19.8h83.88c59.4,0,81.36,32.76,81.36,113.76s-20.52,113.04-76.32,113.04H36.43ZM104.47,178.14v187.2h14.4c16.92,0,33.84-11.52,34.2-86.4.36-85.32-8.28-100.8-36-100.8h-12.6Z" style="fill: #c65b28; stroke-width: 0px;"/>
    <path d="M273.67,186.42c50.04,0,66.24,16.2,66.24,60.84,0,17.64-1.44,79.2-1.44,98.28,0,10.44,1.08,14.04,5.76,14.04,5.4,0,8.28-7.92,6.84-60.12h12.6c4.32,70.56-6.48,88.2-30.96,88.2-20.88,0-30.24-10.08-30.96-32.76h-3.96c-6.84,16.56-21.24,32.76-46.08,32.76-33.84,0-44.64-21.96-44.64-58.68s14.4-54.36,45.72-57.96c35.28-2.52,37.08-12.96,37.08-30.6v-8.28c0-19.8-10.08-27.72-28.8-27.72-7.92,0-15.12,1.08-21.6,3.96l1.44,5.04c2.16-.36,3.96-.36,5.76-.36,14.4,0,21.6,5.76,21.6,19.8,0,12.24-5.76,22.32-25.56,22.32-17.64,0-28.08-8.64-28.08-26.64,0-27,18.36-42.12,59.04-42.12ZM289.87,335.46v-57.96c-13.68,10.08-38.88,10.8-38.88,46.08,0,24.48,5.4,35.28,18.36,35.28s20.52-8.64,20.52-23.4Z" style="fill: #c65b28; stroke-width: 0px;"/>
    <path d="M421.99,188.94h37.44v19.8h-37.44v133.92c0,14.04,1.8,19.8,7.92,19.8s9.72-6.84,9.72-38.52c0-7.92,0-15.84-.36-24.48h18.72c0,8.64.72,17.28.72,26.28,0,42.12-8.64,62.28-40.68,62.28-29.88,0-45-9.72-45-47.88v-131.4h-15.84v-19.8c23.76,0,42.84-12.96,47.52-46.8h17.28v46.8Z" style="fill: #c65b28; stroke-width: 0px;"/>
    <path d="M529.99,186.42c50.04,0,66.24,16.2,66.24,60.84,0,17.64-1.44,79.2-1.44,98.28,0,10.44,1.08,14.04,5.76,14.04,5.4,0,8.28-7.92,6.84-60.12h12.6c4.32,70.56-6.48,88.2-30.96,88.2-20.88,0-30.24-10.08-30.96-32.76h-3.96c-6.84,16.56-21.24,32.76-46.08,32.76-33.84,0-44.64-21.96-44.64-58.68s14.4-54.36,45.72-57.96c35.28-2.52,37.08-12.96,37.08-30.6v-8.28c0-19.8-10.08-27.72-28.8-27.72-7.92,0-15.12,1.08-21.6,3.96l1.44,5.04c2.16-.36,3.96-.36,5.76-.36,14.4,0,21.6,5.76,21.6,19.8,0,12.24-5.76,22.32-25.56,22.32-17.64,0-28.08-8.64-28.08-26.64,0-27,18.36-42.12,59.04-42.12ZM546.19,335.46v-57.96c-13.68,10.08-38.88,10.8-38.88,46.08,0,24.48,5.4,35.28,18.36,35.28s20.52-8.64,20.52-23.4Z" style="fill: #c65b28; stroke-width: 0px;"/>
    <path d="M646.26,385.14l-25.2-155.16c-3.24-14.04-5.4-19.44-13.68-21.6v-19.44h75.6v19.44c-13.32,0-14.04,4.32-10.8,21.96l19.44,135h5.76c9-71.28,13.68-109.08,13.68-129.96,0-18-3.96-22.68-10.8-26.64v-19.8h52.56v19.8c-14.4,6.84-19.44,32.04-39.6,176.4h-66.96Z" style="fill: #c65b28; stroke-width: 0px;"/>
    <path d="M825.54,389.1c-44.64,0-75.6-18.36-75.6-103.68,0-72,25.2-100.44,71.64-100.44,51.84,0,65.16,37.8,65.16,87.48,0,7.2,0,14.04-.36,21.6h-84.96c1.08,49.32,10.44,65.88,36.36,65.88,20.16,0,30.24-12.96,30.24-45.36h18.72c0,45-12.6,74.52-61.2,74.52ZM801.42,275.34h41.04c-.72-60.12-8.28-70.56-20.88-70.56s-19.8,10.08-20.16,70.56Z" style="fill: #c65b28; stroke-width: 0px;"/>
    <path d="M985.02,385.14h-91.44v-19.8c13.32,0,15.84-5.76,15.84-16.2v-124.56c0-11.16-2.52-15.84-15.48-15.84v-19.8h58.68c-.36,9.36-.36,19.44-.72,29.88h5.4c6.48-18.72,15.48-32.4,30.6-32.4,11.88,0,23.04,7.2,23.04,32.4,0,18.72-6.84,34.2-21.6,34.2-15.84,0-17.28-18-24.84-18-4.32,0-5.76,3.96-5.76,16.2v96.48c0,14.04,4.32,17.64,26.28,17.64v19.8Z" style="fill: #c65b28; stroke-width: 0px;"/>
    <path d="M1057.74,303.42c-27.36-15.48-42.48-35.28-42.48-63.72,0-34.2,19.44-54,49.68-54,23.76,0,30.24,12.96,38.88,12.96,4.68,0,6.48-2.16,8.28-9.72h18.36v70.92h-18c-10.44-38.52-22.68-55.44-40.68-55.44-12.6,0-18.36,7.92-18.36,20.16,0,15.12,9.36,28.08,30.96,39.96,32.04,17.28,52.2,38.16,52.2,70.92,0,37.44-21.96,53.28-50.76,53.28-25.56,0-39.6-15.12-47.16-15.12-4.32,0-6.84,2.88-6.84,11.52h-17.64v-77.4h16.92c11.52,42.84,27,62.28,46.08,62.28,10.44,0,17.64-5.04,17.64-20.52,0-18.72-10.8-31.32-37.08-46.08Z" style="fill: #c65b28; stroke-width: 0px;"/>
    <path d="M1224.78,389.1c-44.64,0-75.6-18.36-75.6-103.68,0-72,25.2-100.44,71.64-100.44,51.84,0,65.16,37.8,65.16,87.48,0,7.2,0,14.04-.36,21.6h-84.96c1.08,49.32,10.44,65.88,36.36,65.88,20.16,0,30.24-12.96,30.24-45.36h18.72c0,45-12.6,74.52-61.2,74.52ZM1200.66,275.34h41.04c-.72-60.12-8.28-70.56-20.88-70.56s-19.8,10.08-20.16,70.56Z" style="fill: #c65b28; stroke-width: 0px;"/>
  </g>
  <path d="M1580.65,168.14c-1.01,0-2,.04-3,.08l-10.41-62.41c16.54-8.29,27.91-25.4,27.91-45.16,0-27.89-22.61-50.5-50.5-50.5s-50.5,22.61-50.5,50.5,22.61,50.5,50.5,50.5c.39,0,.78-.02,1.17-.03l10.22,61.27c-28.49,10.12-48.89,37.3-48.89,69.26,0,22.45,10.08,42.54,25.95,56.03l-25.36,39.48c-15.38-7.68-32.73-12.01-51.09-12.01-63.24,0-114.5,51.26-114.5,114.5s51.26,114.5,114.5,114.5,114.5-51.26,114.5-114.5c0-36.99-17.55-69.88-44.76-90.81l25.42-39.57c8.86,3.78,18.61,5.88,28.85,5.88,40.59,0,73.5-32.91,73.5-73.5s-32.91-73.5-73.5-73.5ZM1509.15,60.64c0-19.61,15.89-35.5,35.5-35.5s35.5,15.89,35.5,35.5-15.89,35.5-35.5,35.5-35.5-15.89-35.5-35.5ZM1549.15,439.64c0,51.09-41.41,92.5-92.5,92.5s-92.5-41.41-92.5-92.5,41.41-92.5,92.5-92.5,92.5,41.41,92.5,92.5ZM1580.65,293.14c-28.44,0-51.5-23.06-51.5-51.5s23.06-51.5,51.5-51.5,51.5,23.06,51.5,51.5-23.06,51.5-51.5,51.5Z" style="fill: #c65b28; stroke-width: 0px;"/>
  <path d="M1375.92,190.23c0,18.6-14.6,33.2-33.6,33.2s-33.8-14.6-33.8-33.2,15-32.8,33.8-32.8,33.6,14.6,33.6,32.8ZM1316.92,190.23c0,14.6,10.8,26.2,25.6,26.2s25-11.6,25-26-10.6-26.4-25.2-26.4-25.4,11.8-25.4,26.2ZM1337.12,207.43h-7.6v-32.8c3-.6,7.2-1,12.6-1,6.2,0,9,1,11.4,2.4,1.8,1.4,3.2,4,3.2,7.2,0,3.6-2.8,6.4-6.8,7.6v.4c3.2,1.2,5,3.6,6,8,1,5,1.6,7,2.4,8.2h-8.2c-1-1.2-1.6-4.2-2.6-8-.6-3.6-2.6-5.2-6.8-5.2h-3.6v13.2ZM1337.32,188.83h3.6c4.2,0,7.6-1.4,7.6-4.8,0-3-2.2-5-7-5-2,0-3.4.2-4.2.4v9.4Z" style="fill: #c65b28; stroke-width: 0px;"/>
</svg>